<svg xmlns="http://www.w3.org/2000/svg" width="720" height="1280" viewBox="0 0 720 1280"><rect width="720" height="1280" fill="#fff7f9"/><circle cx="90" cy="100" r="150" fill="#fde2e7"/><circle cx="640" cy="180" r="170" fill="#f3e8ff"/><rect x="48" y="64" width="624" height="208" rx="42" fill="#fff" opacity=".86"/><text x="88" y="132" font-family="Arial,sans-serif" font-size="28" fill="#e95d78">Birlikte güzel</text><text x="88" y="188" font-family="Arial,sans-serif" font-size="46" font-weight="700" fill="#26313f">Bizim Hikâyemiz</text><rect x="48" y="304" width="624" height="170" rx="42" fill="#fff" opacity=".86"/><text x="88" y="370" font-family="Arial,sans-serif" font-size="26" fill="#667085">Birlikte geçen zaman</text><text x="88" y="432" font-family="Arial,sans-serif" font-size="52" font-weight="700" fill="#26313f">427 gün</text><rect x="48" y="510" width="624" height="420" rx="42" fill="#ffe4ec"/><path d="M360 730s-105-57-105-138c0-34 28-61 62-61 20 0 36 9 43 24 7-15 23-24 43-24 34 0 62 27 62 61 0 81-105 138-105 138Z" fill="#fb7185"/><rect x="32" y="1084" width="656" height="132" rx="42" fill="#fff" opacity=".9"/></svg>
